<svg width="20" height="20" viewBox="0 0 20 20" fill="none" xmlns="http://www.w3.org/2000/svg">
<path d="M2.35 9.58333C2.35 13.5706 5.59602 16.8167 9.58333 16.8167C13.5706 16.8167 16.8167 13.5706 16.8167 9.58333C16.8167 5.59602 13.5706 2.35 9.58333 2.35C5.59602 2.35 2.35 5.59602 2.35 9.58333ZM3.68659 9.58333C3.68659 6.33517 6.32848 3.68659 9.58333 3.68659C12.8382 3.68659 15.4801 6.33517 15.4801 9.58333C15.4801 12.8315 12.8382 15.4801 9.58333 15.4801C6.32848 15.4801 3.68659 12.8315 3.68659 9.58333Z" fill="#20102B" stroke="#20102B" stroke-width="0.3"/>
<path d="M16.4802 17.4488C16.6171 17.5857 16.7918 17.65 16.9653 17.65C17.1388 17.65 17.3135 17.5857 17.4504 17.4488C17.7165 17.183 17.7165 16.7448 17.4504 16.479L16.0198 15.0494C15.7538 14.7835 15.3156 14.7835 15.0496 15.0494C14.7835 15.3152 14.7835 15.7534 15.0496 16.0193L16.4802 17.4488Z" fill="#20102B" stroke="#20102B" stroke-width="0.3"/>
</svg>
